<?xml version="1.0" encoding="UTF-8"?>
<!DOCTYPE svg PUBLIC "-//W3C//DTD SVG 1.1//EN" "http://www.w3.org/Graphics/SVG/1.1/DTD/svg11.dtd">
<!-- Creator: CorelDRAW -->
<svg xmlns="http://www.w3.org/2000/svg" xml:space="preserve" width="1.70666in" height="1.70666in" version="1.1" style="shape-rendering:geometricPrecision; text-rendering:geometricPrecision; image-rendering:optimizeQuality; fill-rule:evenodd; clip-rule:evenodd"
viewBox="0 0 1706.66 1706.66"
 xmlns:xlink="http://www.w3.org/1999/xlink"
 xmlns:xodm="http://www.corel.com/coreldraw/odm/2003">
 <defs>
  <style type="text/css">
   <![CDATA[
    .fil0 {fill:black}
   ]]>
  </style>
 </defs>
 <g id="Layer_x0020_1">
  <metadata id="CorelCorpID_0Corel-Layer"/>
  <path class="fil0" d="M960.33 1706.67l-484.85 0c-4.27,0 -8.39,-1.38 -11.83,-3.99 -46.22,-34.77 -86.72,-76.54 -121.56,-123.51l751.62 0c-34.83,46.96 -75.33,88.72 -121.56,123.51 -3.44,2.62 -7.56,4 -11.83,4zm-645.51 -167.12c-25.27,-39.61 -46.89,-82.28 -64.93,-127.09l268.78 0 0 127.09 -203.85 0zm243.46 -127.09l325.98 0 0 127.09 -325.98 0 0 -127.09zm365.59 0l262.06 0c-18.04,44.81 -39.66,87.48 -64.94,127.09l-197.12 0 0 -127.09zm-688.83 -39.61c-7.81,-22.54 -14.73,-45.56 -20.81,-68.91l1007.36 0c-6.07,23.36 -12.99,46.37 -20.8,68.91l-965.75 0zm-30.2 -108.53c-8.95,-41.63 -15.23,-84.17 -18.84,-127.09l332.67 0 0 127.09 -313.83 0zm353.44 -127.09l325.98 0 0 127.09 -325.98 0 0 -127.09zm365.59 0l325.94 0c-3.6,42.92 -9.88,85.47 -18.83,127.09l-307.12 0 0 -127.09zm-740.44 -39.75c-1.31,-28.9 -1.42,-57.88 -0.33,-86.79l1069.58 0c1.09,28.91 0.99,57.89 -0.31,86.79l-1068.94 0zm1.91 -126.41c3.26,-42.89 9.18,-85.43 17.77,-127.09l315.55 0 0 127.09 -333.32 0zm372.93 -127.09l325.98 0 0 127.09 -325.98 0 0 -127.09zm365.59 0l308.79 0c8.59,41.66 14.52,84.2 17.78,127.09l-326.57 0 0 -127.09zm-711.71 -39.61c6.09,-24.34 13.14,-48.31 21.11,-71.8l969.21 0c7.98,23.48 15.02,47.45 21.13,71.8l-1011.45 0zm35.63 -111.41c17.68,-44.76 38.94,-87.41 63.78,-127.09l207.09 0 0 127.09 -270.87 0zm310.48 -127.09l325.98 0 0 127.09 -325.98 0 0 -127.09zm365.59 0l200.31 0c24.84,39.68 46.11,82.33 63.78,127.09l-264.09 0 0 -127.09zm-585.67 -39.47c35.69,-49.13 77.5,-92.69 125.44,-128.74 3.44,-2.61 7.56,-3.99 11.83,-3.99l484.85 -0c4.26,0 8.39,1.37 11.83,3.99 47.93,36.06 89.73,79.61 125.41,128.74l-759.35 0z"/>
  <path class="fil0" d="M806.08 360.64c-18.98,-96.15 -157.78,-96.15 -176.77,0l-136.78 0 0 -102.75c0,-28.61 23.25,-51.99 52,-51.99l206.18 0 0 -55.57c0,-11 8.81,-19.81 19.81,-19.81l151.57 0.14c10.87,0 19.8,8.94 19.8,19.8l0.77 210.17 -136.58 0zm-136.18 0c14.27,-43.11 81.33,-43.12 95.59,-0l-95.59 0z"/>
  <path class="fil0" d="M1377.5 938.06c-37,0 -67.53,-27.1 -67.53,-67.26l0 -218.69c-46.22,-266.02 -159,-393.11 -222.13,-445.24 -22.54,-19.09 -43.73,-36.45 -65.47,-36.45l-589.24 -0.28c-120.54,-0.03 -120.29,-138.09 0,-138.09l452.52 0c84.05,0 196.37,-11.87 266.01,35.21 88.58,59.83 176.2,184.59 260.52,370.96 0.41,0.83 0.69,1.79 0.96,2.75 43.05,150.6 30.81,279.31 30.81,429.55 0,39.89 -29.45,67.54 -66.44,67.54z"/>
  <path class="fil0" d="M1343.57 361.6c-20.79,0 -48.34,-0.72 -59.72,-21.5 -30.87,-56.34 -66.96,-113.19 -109.47,-161.54 -7.37,-8.37 -10.48,-19.74 -8.34,-30.7 16.63,-85.39 90.15,-147.87 177.54,-147.87 99.61,0 180.74,81.12 180.74,180.74 -0,99.67 -81.05,180.87 -180.74,180.87zm-5.24 -72.67c60.69,3.52 113.35,-46.55 113.35,-108.07 0,-121.28 -170.83,-149.52 -210.36,-35.43 36.73,44.17 68.7,93.56 97,143.49z"/>
 </g>
</svg>
