<?xml version="1.0" encoding="UTF-8"?>
<!DOCTYPE svg PUBLIC "-//W3C//DTD SVG 1.1//EN" "http://www.w3.org/Graphics/SVG/1.1/DTD/svg11.dtd">
<!-- Creator: CorelDRAW -->
<svg xmlns="http://www.w3.org/2000/svg" xml:space="preserve" width="1.70666in" height="1.70666in" version="1.1" style="shape-rendering:geometricPrecision; text-rendering:geometricPrecision; image-rendering:optimizeQuality; fill-rule:evenodd; clip-rule:evenodd"
viewBox="0 0 1707 1707"
 xmlns:xlink="http://www.w3.org/1999/xlink">
 <defs>
  <style type="text/css">
   <![CDATA[
    .fil0 {fill:black}
   ]]>
  </style>
 </defs>
 <g id="Layer_x0020_1">
  <metadata id="CorelCorpID_0Corel-Layer"/>
  <path class="fil0" d="M1379 1706l-95 0c24,-81 41,-180 52,-288 82,0 165,0 247,0 -41,109 -104,205 -187,281 -4,5 -11,7 -17,7zm-40 -315c7,-79 11,-162 12,-246l282 0c-1,86 -15,169 -41,247l-253 -1zm12 -273c0,-83 -3,-166 -10,-246l251 0c26,78 40,161 41,247l-282 -1zm-12 -272c-9,-107 -25,-206 -46,-290l83 0c7,0 13,3 18,7 84,77 148,174 189,283l-244 0zm-82 860l-505 0c-23,-79 -41,-179 -52,-289 203,0 406,0 609,1 -11,109 -28,209 -52,288zm-559 -316c-7,-79 -11,-162 -12,-246 213,0 425,0 637,1 0,84 -4,167 -11,246 -205,0 -409,0 -614,-1zm-12 -273c0,-83 3,-166 9,-246 207,0 413,1 619,1 6,80 9,163 9,246 -212,0 -424,0 -637,-1zm12 -272c9,-108 24,-207 45,-289l523 0c21,82 37,182 46,290 -205,-1 -410,-1 -614,-1zm27 861l-94 0c-7,0 -13,-2 -18,-7 -84,-76 -147,-173 -188,-283 83,0 166,0 248,1 11,108 29,208 52,289zm-309 -316c-25,-78 -39,-161 -41,-247 95,0 190,0 284,1 1,83 5,167 12,246 -85,0 -170,0 -255,0zm-40 -273c1,-85 15,-169 41,-246 84,0 168,0 252,0 -7,80 -10,163 -10,246 -94,0 -189,0 -283,0zm51 -273c41,-108 104,-205 188,-281 5,-4 11,-7 18,-7l84 0c-21,84 -36,183 -46,289 -81,0 -163,0 -244,-1z"/>
  <path class="fil0" d="M607 530l0 -71c0,-14 11,-26 26,-26l744 0c14,0 26,12 26,26l0 71 -796 0z"/>
  <polygon class="fil0" points="690,406 690,367 725,355 1318,355 1320,355 1320,406 "/>
  <path class="fil0" d="M99 968c-7,0 -15,-3 -20,-9 -4,-5 -7,-12 -6,-20l51 -617c-2,-64 32,-118 84,-137l499 -183c3,-1 6,-2 9,-2l577 0c15,0 27,12 27,27l0 275c0,15 -12,27 -27,27l-573 0 -381 131 -35 327c-12,103 -100,181 -205,181zm906 -723c44,0 81,-36 81,-80 0,-45 -37,-81 -81,-81 -45,0 -81,36 -81,81 0,44 36,80 81,80zm0 -135c30,0 54,24 54,55 0,30 -24,54 -54,54 -31,0 -55,-24 -55,-54 0,-31 24,-55 55,-55z"/>
 </g>
</svg>
