<?xml version="1.0" encoding="UTF-8"?>
<svg id="Layer_1" data-name="Layer 1" xmlns="http://www.w3.org/2000/svg" viewBox="0 0 48 48">
  <defs>
    <style>
      .cls-1 {
        stroke-width: 0px;
      }
    </style>
  </defs>
  <path class="cls-1" d="M25.5,10.076v-.331c2.021-.642,3.5-2.514,3.5-4.745,0-2.757-2.243-5-5-5s-5,2.243-5,5c0,2.231,1.479,4.103,3.5,4.745v.331c-9.79.767-17.5,8.937-17.5,18.924,0,10.493,8.507,19,19,19s19-8.507,19-19c0-9.987-7.71-18.157-17.5-18.924ZM21,5c0-1.654,1.346-3,3-3s3,1.346,3,3c0,1.199-.712,2.228-1.731,2.708-.265-.424-.732-.708-1.269-.708s-1.004.284-1.269.708c-1.019-.48-1.731-1.509-1.731-2.708ZM24,46c-9.374,0-17-7.626-17-17S14.626,12,24,12s17,7.626,17,17-7.626,17-17,17Z"/>
  <path class="cls-1" d="M36,29c0-.552.448-1,1-1h1.949c-.496-7.472-6.477-13.453-13.949-13.949v1.949c0,.552-.448,1-1,1s-1-.448-1-1v-1.949c-7.473.496-13.453,6.477-13.949,13.949h1.949c.552,0,1,.448,1,1s-.448,1-1,1h-1.949c.496,7.472,6.477,13.453,13.949,13.949v-1.949c0-.552.448-1,1-1s1,.448,1,1v1.949c7.473-.496,13.453-6.477,13.949-13.949h-1.949c-.552,0-1-.448-1-1ZM32.057,21.626l-5.13,8.847c-.35.603-.851,1.104-1.454,1.454l-8.847,5.13c-.443.257-.94-.24-.683-.683l5.13-8.847c.35-.603.851-1.104,1.454-1.454l8.847-5.13c.443-.257.94.24.683.683Z"/>
  <circle class="cls-1" cx="24" cy="29" r="1"/>
</svg>