<?xml version="1.0" encoding="UTF-8"?>
<!DOCTYPE svg PUBLIC "-//W3C//DTD SVG 1.1//EN" "http://www.w3.org/Graphics/SVG/1.1/DTD/svg11.dtd">
<!-- Creator: CorelDRAW 2018 (64-Bit) -->
<svg xmlns="http://www.w3.org/2000/svg" xml:space="preserve" width="0.304079in" height="0.130874in" version="1.1" style="shape-rendering:geometricPrecision; text-rendering:geometricPrecision; image-rendering:optimizeQuality; fill-rule:evenodd; clip-rule:evenodd"
viewBox="0 0 304.08 130.87"
 xmlns:xlink="http://www.w3.org/1999/xlink">
 <defs>
  <style type="text/css">
   <![CDATA[
    .fil0 {fill:black}
   ]]>
  </style>
 </defs>
 <g id="Layer_x0020_1">
  <metadata id="CorelCorpID_0Corel-Layer"/>
  <path class="fil0" d="M7.63 116.55l-7.63 -5.45 47.31 -38.2 7.38 11.29 6.07 -2.17 -1.96 -8.9 14.76 -15.19 3.91 6.08 11.72 -17.36 2.6 -8.68 12.15 -11.07 3.04 13.67 8.03 2.17 6.94 8.9 27.56 -51.65 6.74 12.37 5.21 7.6 4.78 0 9.11 10.42 13.45 1.74 10.42 21.7 5.64 -6.94 14.76 10.42 11.07 -0.87 19.75 19.1 12.8 -5.86 5.67 16.94 35.16 20.4 -13.45 9.55 -78.13 -2.17 9.12 8.24 -65.54 1.74 3.47 6.51 -58.59 -3.47 7.38 -5.64 -51.22 1.74 4.34 -4.34 -53.82 -2.6zm256.25 -17.41l-11.74 -17.37 8.03 -3.47 5.39 10.48 9.72 6.77 -11.39 3.58zm-47.02 -21.06l0.44 -9.76 20.83 14.97 7.81 -2.82 -17.47 -18.67 -11.28 1.19 -11.61 -9.01 -4.67 6.08 11.29 15.41 4.67 2.61zm-74.13 -37.77l-12.15 8.46 17.8 -36.68 11.07 16.27 6.46 -1.21 6.05 10.45 15.7 11.59 -12.15 -3.26 7.81 20.83 -29.73 -26.26 -0.87 16.93 -9.98 -17.15zm-62.07 52.94l-6.72 0.54 20.4 -43.95 0.43 -9 5.97 -4.78 2.39 12.37 -3.58 10.75 -0.22 9.76 -17.36 35.59 -1.3 -11.29zm-4.45 -23.02l-3.41 -5.39 -10.31 10.21 1.57 7.07 5.75 0.92 6.41 -12.8zm-42.32 31.34l-14.32 0.87 25.61 -22.14 1.3 13.46 -12.59 7.81z"/>
 </g>
</svg>
