<?xml version="1.0" encoding="UTF-8" standalone="no"?> <svg id="Layer_1" data-name="Layer 1" xmlns="http://www.w3.org/2000/svg" viewBox="0 0 48 48"><circle cx="19" cy="19" r="1"/><circle cx="27.5" cy="30.5" r="1"/><circle cx="30.5" cy="30.5" r="1"/><circle cx="27.5" cy="27.5" r="1"/><path d="M12,12V36H36V12Zm11,9a2,2,0,0,1-2,2H17a2,2,0,0,1-2-2V17a2,2,0,0,1,2-2h4a2,2,0,0,1,2,2ZM33,31a2,2,0,0,1-2,2H27a2,2,0,0,1-2-2V27a2,2,0,0,1,2-2h4a2,2,0,0,1,2,2Z"/><circle cx="30.5" cy="27.5" r="1"/><path d="M40,44H38V38h6v2A4,4,0,0,1,40,44Z"/><path d="M8,4h2v6H4V8A4,4,0,0,1,8,4Z"/><path d="M8,44h2V38H4v2A4,4,0,0,0,8,44Z"/><path d="M40,4H38v6h6V8A4,4,0,0,0,40,4Z"/><rect x="38" y="29" width="6" height="7"/><rect x="38" y="21" width="6" height="6"/><rect x="38" y="12" width="6" height="7"/><rect x="4" y="29" width="6" height="7"/><rect x="4" y="21" width="6" height="6"/><rect x="4" y="12" width="6" height="7"/><rect x="12" y="38" width="7" height="6"/><rect x="21" y="38" width="6" height="6"/><rect x="29" y="38" width="7" height="6"/><rect x="12" y="4" width="7" height="6"/><rect x="21" y="4" width="6" height="6"/><rect x="29" y="4" width="7" height="6"/></svg>