<?xml version="1.0" encoding="UTF-8" standalone="no"?> <svg id="Layer_1" data-name="Layer 1" xmlns="http://www.w3.org/2000/svg" viewBox="0 0 48 48"><path d="M45.817,10.376A8.244,8.244,0,0,0,35.358,5.462,8.124,8.124,0,0,0,31.724,8h-5.43A8.133,8.133,0,0,0,22.66,5.462,8.242,8.242,0,0,0,12.2,10.376a38.392,38.392,0,0,0-1.348,4.667,10.285,10.285,0,0,1,2.466.531A10.175,10.175,0,0,1,17.179,18h3.659A10.251,10.251,0,0,1,37.7,21.7a39.868,39.868,0,0,1,2,8.1,5.243,5.243,0,0,0,4.634.988,4.6,4.6,0,0,0,2.576-2.547C48.7,24.477,48.252,17.132,45.817,10.376ZM22.009,15h-1.5v1.5a1,1,0,1,1-2,0V15h-1.5a1,1,0,0,1,0-2h1.5V11.5a1,1,0,1,1,2,0V13h1.5a1,1,0,0,1,0,2Zm14,0a1,1,0,1,1,1-1A1,1,0,0,1,36.009,15Zm2.5,2.5a1,1,0,1,1,1-1A1,1,0,0,1,38.509,17.5Zm0-5a1,1,0,1,1,1-1A1,1,0,0,1,38.509,12.5Zm2.5,2.5a1,1,0,1,1,1-1A1,1,0,0,1,41.009,15Z"/><path d="M35.8,22.378A8.243,8.243,0,0,0,25.34,17.465,8.122,8.122,0,0,0,21.706,20h-5.43a8.131,8.131,0,0,0-3.634-2.535A8.243,8.243,0,0,0,2.183,22.378C-.252,29.134-.7,36.48,1.093,40.242A4.6,4.6,0,0,0,3.669,42.79,3.807,3.807,0,0,0,4.931,43c2.618,0,5.739-2.5,8.646-7H24.405c3.393,5.245,7.075,7.775,9.908,6.79a4.6,4.6,0,0,0,2.576-2.548C38.682,36.48,38.234,29.134,35.8,22.378ZM11.991,27h-1.5v1.5a1,1,0,0,1-2,0V27h-1.5a1,1,0,0,1,0-2h1.5V23.5a1,1,0,0,1,2,0V25h1.5a1,1,0,0,1,0,2Zm8,5h-2a1,1,0,0,1,0-2h2a1,1,0,0,1,0,2Zm6-5a1,1,0,1,1,1-1A1,1,0,0,1,25.991,27Zm2.5,2.5a1,1,0,1,1,1-1A1,1,0,0,1,28.491,29.5Zm0-5a1,1,0,1,1,1-1A1,1,0,0,1,28.491,24.5Zm2.5,2.5a1,1,0,1,1,1-1A1,1,0,0,1,30.991,27Z"/></svg>