<?xml version="1.0" encoding="UTF-8" standalone="no"?> <svg id="Layer_1" data-name="Layer 1" xmlns="http://www.w3.org/2000/svg" viewBox="0 0 48 48"><path d="M8.165,25A3.116,3.116,0,0,1,8,24a3.779,3.779,0,0,1,4-3.5A3.779,3.779,0,0,1,16,24a3.116,3.116,0,0,1-.165,1H21V19.029a1.506,1.506,0,0,1,.809-1.335,1.467,1.467,0,0,1,1.519.088A1.165,1.165,0,0,0,24,18c.813,0,1.5-.916,1.5-2s-.687-2-1.5-2a1.174,1.174,0,0,0-.672.216,1.469,1.469,0,0,1-1.52.088A1.5,1.5,0,0,1,21,12.97V7H7a4,4,0,0,0-4,4V25Z"/><path d="M25.5,11.325a3.132,3.132,0,0,1,.866-.527,3.781,3.781,0,0,1,4.744,2.4,3.78,3.78,0,0,1-1.747,5.02,3.148,3.148,0,0,1-.989.221l1.935,4.789,5.536-2.237a1.5,1.5,0,0,1,1.54.25,1.47,1.47,0,0,1,.488,1.442,1.159,1.159,0,0,0,.05.7,2.083,2.083,0,0,0,3.709-1.5,1.175,1.175,0,0,0-.453-.542,1.465,1.465,0,0,1-.65-1.377,1.5,1.5,0,0,1,.934-1.248L47,16.483,41.756,3.5a4,4,0,0,0-5.208-2.211L23.568,6.537Z"/><path d="M35.835,27A3.116,3.116,0,0,1,36,28a3.779,3.779,0,0,1-4,3.5A3.779,3.779,0,0,1,28,28a3.116,3.116,0,0,1,.165-1H23v5.97a1.5,1.5,0,0,1-.808,1.334,1.467,1.467,0,0,1-1.519-.086A1.168,1.168,0,0,0,20,34c-.813,0-1.5.916-1.5,2s.687,2,1.5,2a1.169,1.169,0,0,0,.674-.219,1.47,1.47,0,0,1,1.517-.087A1.505,1.505,0,0,1,23,39.029V45H37a4,4,0,0,0,4-4V27Z"/><path d="M21,39.835A3.116,3.116,0,0,1,20,40a3.779,3.779,0,0,1-3.5-4A3.779,3.779,0,0,1,20,32a3.116,3.116,0,0,1,1,.165V27H15.03a1.5,1.5,0,0,1-1.334-.808,1.467,1.467,0,0,1,.086-1.519A1.168,1.168,0,0,0,14,24c0-.813-.916-1.5-2-1.5s-2,.687-2,1.5a1.169,1.169,0,0,0,.219.674,1.467,1.467,0,0,1,.087,1.517A1.505,1.505,0,0,1,8.971,27H3V41a4,4,0,0,0,4,4H21Z"/></svg>