<?xml version="1.0" encoding="UTF-8"?>
<!DOCTYPE svg PUBLIC "-//W3C//DTD SVG 1.1//EN" "http://www.w3.org/Graphics/SVG/1.1/DTD/svg11.dtd">
<!-- Creator: CorelDRAW -->
<svg xmlns="http://www.w3.org/2000/svg" xml:space="preserve" width="1.70666in" height="1.70666in" version="1.1" style="shape-rendering:geometricPrecision; text-rendering:geometricPrecision; image-rendering:optimizeQuality; fill-rule:evenodd; clip-rule:evenodd"
viewBox="0 0 1706.66 1706.66"
 xmlns:xlink="http://www.w3.org/1999/xlink"
 xmlns:xodm="http://www.corel.com/coreldraw/odm/2003">
 <defs>
  <style type="text/css">
   <![CDATA[
    .fil0 {fill:black}
   ]]>
  </style>
 </defs>
 <g id="Layer_x0020_1">
  <metadata id="CorelCorpID_0Corel-Layer"/>
  <path class="fil0" d="M261.5 1383.04l-162.32 0c-54.69,0 -99.18,-44.5 -99.18,-99.2l0 -431.49c0,-54.69 44.49,-99.18 99.18,-99.18l162.32 0c54.69,0 99.18,44.49 99.18,99.18l0 162.41 -110.08 0c-43.48,0 -74.93,32.68 -83.8,73.72l-31.67 146.48c-7.16,33.13 18.23,64.61 52.13,64.61l172.16 0c-7.57,47.24 -48.6,83.46 -97.93,83.46z"/>
  <path class="fil0" d="M1218.75 1001.39l-95.85 0c-1.41,-30.14 -5.26,-181.3 -12.29,-198.72l170.26 0c14.05,0 23.74,14.2 18.61,27.28l-62.13 158.73c-2.98,7.67 -10.38,12.71 -18.6,12.71zm-621.12 0l-109.72 0c-8.8,0 -16.57,-5.76 -19.14,-14.18l-48.28 -158.74c-3.89,-12.82 5.73,-25.82 19.14,-25.82l170.29 0c-7.04,17.38 -10.89,168.63 -12.29,198.74z"/>
  <path class="fil0" d="M1014.64 842.66c-103.53,0 -328.77,6.3 -328.77,-20l0 -127.68c0,-96.15 78.23,-174.39 174.39,-174.39 96.17,0 174.4,78.24 174.4,174.39l0 127.68c0,11.06 -8.97,20 -20.02,20zm-83.12 -141.02l-142.51 0c-26.33,0 -26.33,-40 0,-40l142.51 0c26.33,0 26.33,40 0,40z"/>
  <path class="fil0" d="M931.52 594.81c-20.24,0 -36.67,-16.43 -36.67,-36.67l0 -102.79c0,-48.28 73.33,-48.28 73.33,0l0 102.79c0,20.24 -16.43,36.67 -36.67,36.67zm-142.51 0c-20.24,0 -36.67,-16.43 -36.67,-36.67l0 -102.79c0,-48.29 73.33,-48.29 73.33,0l0 102.79c0,20.24 -16.42,36.67 -36.67,36.67z"/>
  <path class="fil0" d="M1196.41 475.35l-672.32 0c-11.04,0 -20,-8.96 -20,-20l0 -113.68c0,-11.04 8.96,-20 20,-20l672.32 0c11.04,0 20,8.96 20,20l0 113.68c0.02,11.06 -8.96,20 -20,20z"/>
  <path class="fil0" d="M1519.38 1266.25l-389.03 0c2.85,-7.02 4.24,-14.69 3.88,-22.5l-9.15 -195.65 330.96 0.01c24.89,0 45,18.63 51.22,47.44l31.67 146.47c2.68,12.41 -6.85,24.22 -19.55,24.22zm-929.2 0l-402.91 0c-12.68,0 -22.24,-11.83 -19.55,-24.24l31.67 -146.48c6.22,-28.8 26.33,-47.43 51.22,-47.43l344.84 0 -9.15 195.65c-0.37,7.81 1.02,15.48 3.87,22.5z"/>
  <path class="fil0" d="M860.27 1384.99c-11.93,0 -203.44,-106.74 -230.18,-121.14 -6.78,-3.65 -10.86,-10.86 -10.5,-18.56l19.8 -423.59c0.5,-10.67 9.29,-19.07 19.98,-19.07l401.78 0c10.69,0 19.47,8.39 19.97,19.07l19.81 423.59c0.35,7.7 -3.74,14.91 -10.5,18.56 -26.68,14.38 -218.26,121.13 -230.16,121.13zm103.9 -453.25l-207.83 0c-26.32,0 -26.32,-40 0,-40l207.83 0c26.32,0 26.33,40 0,40zm0 102.93l-207.83 0c-26.32,0 -26.32,-40 0,-40l207.83 0c26.32,0 26.33,40 0,40zm0 102.93l-207.83 0c-26.32,0 -26.32,-40 0,-40l207.83 0c26.32,0 26.33,40 0,40zm0 102.92l-207.83 0c-26.32,0 -26.32,-40 0,-40l207.83 0c26.32,0 26.33,40 0,40z"/>
  <path class="fil0" d="M1210.01 1018.06l-86.34 0 -3.47 -74.24c46.34,-0.76 105.65,-0.78 117.14,5.99l147.24 86.72c32.05,18.87 18.54,68.25 -18.62,68.25 -24.76,0 -127.14,-73.3 -155.95,-86.72zm-713.37 -0.01c-28.85,13.45 -131.2,86.73 -155.96,86.73 -37.15,0 -50.64,-49.37 -18.64,-68.27 25.51,-15.06 146.33,-91.81 165.87,-91.81l112.36 0.01 -3.43 73.33 -100.2 0z"/>
  <path class="fil0" d="M1607.48 1383.04l-162.32 0c-49.33,0 -90.36,-36.22 -97.93,-83.46l172.15 0c33.9,0 59.29,-31.46 52.13,-64.6l-31.67 -146.47c-8.88,-41.05 -40.31,-73.73 -83.8,-73.73l-110.06 0 0 -162.43c0,-54.69 44.49,-99.18 99.18,-99.18l162.32 0c54.69,0 99.18,44.49 99.18,99.18l0 431.5c-0.02,54.69 -44.5,99.19 -99.18,99.19z"/>
 </g>
</svg>
