<?xml version="1.0" encoding="UTF-8" standalone="no"?> <svg id="Layer_1" data-name="Layer 1" xmlns="http://www.w3.org/2000/svg" viewBox="0 0 48 48"><path d="M22.41,28.417l3.88,3.643,5.77-5.77L12.09,5.02a.963.963,0,0,0-.62-.3L5.11,4.01a.983.983,0,0,0-1.1,1.1l.71,6.36a.963.963,0,0,0,.3.62L19.494,25.68l-5.656,5.654-4.319-.41a1,1,0,0,0-.8.288L4.147,35.783a.5.5,0,0,0,.306.851l3.841.371A1.977,1.977,0,0,0,11,39.731l.368,3.816a.5.5,0,0,0,.851.306l4.571-4.571a1,1,0,0,0,.288-.8l-.41-4.319Z"/><path d="M29.831,20.993l9.483-9.486.851,1.7A1,1,0,0,0,42.029,13l1.94-7.761a1,1,0,0,0-1.212-1.212L35,5.971a1,1,0,0,0-.205,1.864l1.7.851L27.1,18.08Z"/><path d="M42.61,37.96l-.36-.17a3.423,3.423,0,0,1-.8-.58l-4.5-4.5-4.24,4.24,4.49,4.49a3.249,3.249,0,0,1,.57.78l.2.4a2.456,2.456,0,0,0,1.83,1.35,2.693,2.693,0,0,0,.4.03,2.505,2.505,0,0,0,1.77-.73l1.3-1.3a2.5,2.5,0,0,0-.66-4.01Z"/><path d="M36.244,26.344a1,1,0,0,0-1.415,0l-8.485,8.485a1,1,0,0,0,0,1.415,3,3,0,0,0,4.243,0l5.657-5.657A3,3,0,0,0,36.244,26.344Z"/></svg>