<?xml version="1.0" encoding="UTF-8"?>
<!DOCTYPE svg PUBLIC "-//W3C//DTD SVG 1.1//EN" "http://www.w3.org/Graphics/SVG/1.1/DTD/svg11.dtd">
<!-- Creator: CorelDRAW -->
<svg xmlns="http://www.w3.org/2000/svg" xml:space="preserve" width="1.70666in" height="1.70666in" version="1.1" style="shape-rendering:geometricPrecision; text-rendering:geometricPrecision; image-rendering:optimizeQuality; fill-rule:evenodd; clip-rule:evenodd"
viewBox="0 0 1707 1707"
 xmlns:xlink="http://www.w3.org/1999/xlink">
 <defs>
  <style type="text/css">
   <![CDATA[
    .fil0 {fill:#000002}
   ]]>
  </style>
 </defs>
 <g id="Layer_x0020_1">
  <metadata id="CorelCorpID_0Corel-Layer"/>
  <path class="fil0" d="M1142 1655c-7,0 -14,-3 -19,-10l-123 -175c-96,22 -197,22 -293,0l-124 175c-6,10 -19,13 -30,7l-253 -146c-10,-6 -14,-19 -9,-29l90 -195c-67,-72 -118,-159 -146,-254l-214 -19c-12,-1 -21,-11 -21,-23l0 -146c0,-12 11,-22 23,-22l257 0 0 -279 -81 0c-10,45 -50,78 -98,78 -55,0 -101,-45 -101,-101 0,-55 46,-101 101,-101 48,0 88,34 98,79l104 0c12,0 22,10 22,22l0 302 93 0 0 -261c0,-30 45,-30 45,0l0 261 92 0 0 -488 -78 -78c-67,42 -155,-6 -155,-86 0,-55 46,-100 101,-100 79,0 127,87 86,154l85 85c4,4 7,10 7,16l0 497 92 0 0 -429c0,-30 45,-30 45,0l0 429 93 0 0 -567c-45,-11 -79,-51 -79,-99 0,-55 46,-100 101,-100 56,0 101,45 101,100 0,48 -33,88 -78,99l0 567 92 0 0 -429c0,-30 46,-30 46,0l0 429 92 0 0 -497c0,-6 2,-12 7,-16l85 -85c-42,-67 6,-154 86,-154 55,0 100,45 100,100 0,80 -88,128 -154,86l-79 78 0 488 93 0 0 -261c0,-30 45,-30 45,0l0 261 92 0 0 -302c0,-12 10,-22 23,-22l103 0c11,-45 51,-79 98,-79 56,0 101,46 101,101 0,56 -45,101 -101,101 -47,0 -87,-33 -98,-78l-80 0 0 279 257 0c12,0 22,10 22,22l0 146c0,12 -9,22 -20,23l-214 19c-29,95 -79,182 -147,254l91 195c5,10 1,23 -10,29l-253 146c-3,2 -7,3 -11,3zm-289 -1558c-73,0 -73,111 0,111 73,0 73,-111 0,-111zm-752 364c-73,0 -73,111 0,111 73,0 73,-111 0,-111zm322 -350c-73,0 -73,111 0,111 73,0 73,-111 0,-111zm1127 405c1,75 111,73 111,0 0,-72 -110,-73 -111,0zm-266 -405c-73,0 -73,111 0,111 72,0 72,-111 0,-111zm-431 1147c-223,0 -405,-175 -417,-395l-390 0 0 103 208 19c10,0 18,7 20,16 27,98 79,188 151,260 6,7 8,17 4,26l-88 190 217 125 121 -171c5,-7 15,-11 24,-9 98,25 203,25 301,0 9,-2 18,2 24,9l121 171 217 -125 -88 -190c-4,-9 -2,-19 4,-26 71,-72 123,-162 151,-260 2,-9 10,-16 19,-16l209 -19 0 -103 -390 0c-12,220 -195,395 -418,395zm372 -395l-744 0c12,195 175,350 372,350 198,0 360,-155 372,-350z"/>
 </g>
</svg>
